<svg width="23" height="21" viewBox="0 0 23 21" fill="none" xmlns="http://www.w3.org/2000/svg">
<path d="M8.07778 8.5C8.5756 8.5 8.82451 8.5 9.01466 8.28201C9.18191 8.09027 9.3179 7.78431 9.40312 7.40798C9.5 6.98016 9.5 6.42011 9.5 5.3V4.7C9.5 3.5799 9.5 3.01984 9.40312 2.59202C9.3179 2.2157 9.18191 1.90973 9.01466 1.71799C8.82451 1.5 8.5756 1.5 8.07778 1.5L2.92222 1.5C2.4244 1.5 2.17549 1.5 1.98534 1.71799C1.81809 1.90973 1.6821 2.21569 1.59688 2.59202C1.5 3.01984 1.5 3.57989 1.5 4.7L1.5 5.3C1.5 6.4201 1.5 6.98016 1.59688 7.40798C1.6821 7.78431 1.81809 8.09027 1.98534 8.28201C2.17549 8.5 2.4244 8.5 2.92222 8.5L8.07778 8.5Z" stroke="#574F42" stroke-width="2" stroke-linecap="round" stroke-linejoin="round"/>
<path d="M8.07778 19.5C8.5756 19.5 8.82451 19.5 9.01466 19.282C9.18191 19.0903 9.3179 18.7843 9.40312 18.408C9.5 17.9802 9.5 17.4201 9.5 16.3V15.7C9.5 14.5799 9.5 14.0198 9.40312 13.592C9.3179 13.2157 9.18191 12.9097 9.01466 12.718C8.82451 12.5 8.5756 12.5 8.07778 12.5L2.92222 12.5C2.4244 12.5 2.17549 12.5 1.98534 12.718C1.81809 12.9097 1.6821 13.2157 1.59688 13.592C1.5 14.0198 1.5 14.5799 1.5 15.7L1.5 16.3C1.5 17.4201 1.5 17.9802 1.59688 18.408C1.6821 18.7843 1.81809 19.0903 1.98534 19.282C2.17549 19.5 2.4244 19.5 2.92222 19.5H8.07778Z" stroke="#574F42" stroke-width="2" stroke-linecap="round" stroke-linejoin="round"/>
<path d="M20.0778 8.5C20.5756 8.5 20.8245 8.5 21.0147 8.28201C21.1819 8.09027 21.3179 7.78431 21.4031 7.40798C21.5 6.98016 21.5 6.42011 21.5 5.3V4.7C21.5 3.5799 21.5 3.01984 21.4031 2.59202C21.3179 2.2157 21.1819 1.90973 21.0147 1.71799C20.8245 1.5 20.5756 1.5 20.0778 1.5L14.9222 1.5C14.4244 1.5 14.1755 1.5 13.9853 1.71799C13.8181 1.90973 13.6821 2.21569 13.5969 2.59202C13.5 3.01984 13.5 3.57989 13.5 4.7L13.5 5.3C13.5 6.4201 13.5 6.98016 13.5969 7.40798C13.6821 7.78431 13.8181 8.09027 13.9853 8.28201C14.1755 8.5 14.4244 8.5 14.9222 8.5L20.0778 8.5Z" stroke="#574F42" stroke-width="2" stroke-linecap="round" stroke-linejoin="round"/>
<path d="M20.0778 19.5C20.5756 19.5 20.8245 19.5 21.0147 19.282C21.1819 19.0903 21.3179 18.7843 21.4031 18.408C21.5 17.9802 21.5 17.4201 21.5 16.3V15.7C21.5 14.5799 21.5 14.0198 21.4031 13.592C21.3179 13.2157 21.1819 12.9097 21.0147 12.718C20.8245 12.5 20.5756 12.5 20.0778 12.5L14.9222 12.5C14.4244 12.5 14.1755 12.5 13.9853 12.718C13.8181 12.9097 13.6821 13.2157 13.5969 13.592C13.5 14.0198 13.5 14.5799 13.5 15.7L13.5 16.3C13.5 17.4201 13.5 17.9802 13.5969 18.408C13.6821 18.7843 13.8181 19.0903 13.9853 19.282C14.1755 19.5 14.4244 19.5 14.9222 19.5H20.0778Z" stroke="#574F42" stroke-width="2" stroke-linecap="round" stroke-linejoin="round"/>
</svg>
