<svg width="25" height="25" viewBox="0 0 25 25" fill="none" xmlns="http://www.w3.org/2000/svg">
<path d="M18.3 10.5C19.4201 10.5 19.9802 10.5 20.408 10.282C20.7843 10.0903 21.0903 9.78431 21.282 9.40798C21.5 8.98016 21.5 8.42011 21.5 7.3V6.7C21.5 5.5799 21.5 5.01984 21.282 4.59202C21.0903 4.2157 20.7843 3.90973 20.408 3.71799C19.9802 3.5 19.4201 3.5 18.3 3.5L6.7 3.5C5.5799 3.5 5.01984 3.5 4.59202 3.71799C4.21569 3.90973 3.90973 4.21569 3.71799 4.59202C3.5 5.01984 3.5 5.57989 3.5 6.7L3.5 7.3C3.5 8.4201 3.5 8.98016 3.71799 9.40798C3.90973 9.78431 4.21569 10.0903 4.59202 10.282C5.01984 10.5 5.57989 10.5 6.7 10.5L18.3 10.5Z" stroke="#574F42" stroke-width="2" stroke-linecap="round" stroke-linejoin="round"/>
<path d="M18.3 21.5C19.4201 21.5 19.9802 21.5 20.408 21.282C20.7843 21.0903 21.0903 20.7843 21.282 20.408C21.5 19.9802 21.5 19.4201 21.5 18.3V17.7C21.5 16.5799 21.5 16.0198 21.282 15.592C21.0903 15.2157 20.7843 14.9097 20.408 14.718C19.9802 14.5 19.4201 14.5 18.3 14.5L6.7 14.5C5.5799 14.5 5.01984 14.5 4.59202 14.718C4.21569 14.9097 3.90973 15.2157 3.71799 15.592C3.5 16.0198 3.5 16.5799 3.5 17.7L3.5 18.3C3.5 19.4201 3.5 19.9802 3.71799 20.408C3.90973 20.7843 4.21569 21.0903 4.59202 21.282C5.01984 21.5 5.57989 21.5 6.7 21.5H18.3Z" stroke="#574F42" stroke-width="2" stroke-linecap="round" stroke-linejoin="round"/>
</svg>
