<svg width="14" height="14" viewBox="0 0 14 14" fill="none" xmlns="http://www.w3.org/2000/svg">
<path d="M7.3687 10.0339V6.31588H5.50968V7.2454H6.43919V10.0339H5.04492V10.9634H8.76297V10.0339H7.3687ZM6.90395 3.52734C6.76607 3.52734 6.63128 3.56823 6.51664 3.64483C6.402 3.72143 6.31264 3.83031 6.25988 3.9577C6.20711 4.08508 6.19331 4.22525 6.22021 4.36048C6.24711 4.49571 6.3135 4.61993 6.411 4.71743C6.50849 4.81492 6.63271 4.88132 6.76794 4.90822C6.90317 4.93512 7.04334 4.92131 7.17073 4.86855C7.29811 4.81578 7.40699 4.72643 7.48359 4.61179C7.5602 4.49714 7.60108 4.36236 7.60108 4.22448C7.60108 4.03959 7.52763 3.86227 7.3969 3.73153C7.26616 3.60079 7.08884 3.52734 6.90395 3.52734Z" fill="#574F42"/>
<path d="M6.90405 13.7515C5.61717 13.7515 4.35919 13.3699 3.28919 12.6549C2.21918 11.94 1.38522 10.9238 0.892749 9.73484C0.40028 8.54591 0.271428 7.23766 0.522486 5.9755C0.773544 4.71335 1.39324 3.55398 2.3032 2.64402C3.21316 1.73406 4.37253 1.11436 5.63468 0.863306C6.89684 0.612248 8.20509 0.7411 9.39402 1.23357C10.5829 1.72604 11.5991 2.56 12.3141 3.63001C13.029 4.70001 13.4106 5.95799 13.4106 7.24487C13.4106 8.97053 12.7251 10.6255 11.5049 11.8457C10.2847 13.0659 8.62971 13.7515 6.90405 13.7515ZM6.90405 1.6678C5.80101 1.6678 4.72274 1.99489 3.8056 2.6077C2.88845 3.22052 2.17362 4.09154 1.75151 5.11062C1.32939 6.1297 1.21895 7.25106 1.43414 8.33291C1.64933 9.41475 2.1805 10.4085 2.96046 11.1885C3.74043 11.9684 4.73417 12.4996 5.81602 12.7148C6.89787 12.93 8.01923 12.8195 9.03831 12.3974C10.0574 11.9753 10.9284 11.2605 11.5412 10.3433C12.154 9.42619 12.4811 8.34792 12.4811 7.24487C12.4811 5.76574 11.8935 4.34719 10.8476 3.30129C9.80174 2.25538 8.38319 1.6678 6.90405 1.6678Z" fill="#574F42"/>
</svg>
