<svg width="21" height="21" viewBox="0 0 21 21" fill="none" xmlns="http://www.w3.org/2000/svg">
<path d="M1.5 3.5H5.5M19.5 3.5H9.5M1.5 10.5H13.5M19.5 10.5H17.5M1.5 17.5H3.5M19.5 17.5H7.5" stroke="#F6F6F6" stroke-width="2" stroke-linecap="round"/>
<path d="M7.5 5.5C8.60457 5.5 9.5 4.60457 9.5 3.5C9.5 2.39543 8.60457 1.5 7.5 1.5C6.39543 1.5 5.5 2.39543 5.5 3.5C5.5 4.60457 6.39543 5.5 7.5 5.5Z" stroke="#F6F6F6" stroke-width="2" stroke-linecap="round"/>
<path d="M15.5 12.5C16.6046 12.5 17.5 11.6046 17.5 10.5C17.5 9.39543 16.6046 8.5 15.5 8.5C14.3954 8.5 13.5 9.39543 13.5 10.5C13.5 11.6046 14.3954 12.5 15.5 12.5Z" stroke="#F6F6F6" stroke-width="2" stroke-linecap="round"/>
<path d="M5.5 19.5C6.60457 19.5 7.5 18.6046 7.5 17.5C7.5 16.3954 6.60457 15.5 5.5 15.5C4.39543 15.5 3.5 16.3954 3.5 17.5C3.5 18.6046 4.39543 19.5 5.5 19.5Z" stroke="#F6F6F6" stroke-width="2" stroke-linecap="round"/>
</svg>
