<svg width="92" height="92" viewBox="0 0 92 92" fill="none" xmlns="http://www.w3.org/2000/svg">
<circle cx="37.4999" cy="44.5" r="34.2033" fill="url(#paint0_linear_382_12)"/>
<circle cx="37.5" cy="44.5" r="37" stroke="#484242"/>
<circle cx="85.5" cy="55.5" r="6.5" fill="#FB0505"/>
<circle cx="15.5" cy="3.5" r="3.5" fill="#FB0505"/>
<circle cx="18.5" cy="88.5" r="3.5" fill="#FB0505"/>
<circle cx="5.5" cy="81.5" r="3" stroke="#FB0505"/>
<path d="M36.408 53.056C36.248 50.624 36.064 48.28 35.856 46.024C35.648 43.752 35.416 41.632 35.16 39.664C34.872 37.312 34.632 35.336 34.44 33.736C34.248 32.136 34.152 31.016 34.152 30.376C34.152 29.4 34.424 28.584 34.968 27.928C35.512 27.272 36.28 26.944 37.272 26.944C38.36 26.944 39.128 27.264 39.576 27.904C40.04 28.544 40.272 29.312 40.272 30.208C40.272 30.672 40.232 31.344 40.152 32.224C40.072 33.088 39.96 34.136 39.816 35.368C39.672 36.584 39.496 37.968 39.288 39.52C39.032 41.504 38.792 43.648 38.568 45.952C38.36 48.256 38.192 50.624 38.064 53.056H36.408ZM37.224 64.504C36.232 64.504 35.448 64.192 34.872 63.568C34.296 62.928 34.008 62.176 34.008 61.312C34.008 60.384 34.296 59.616 34.872 59.008C35.464 58.4 36.248 58.096 37.224 58.096C38.232 58.096 39.024 58.4 39.6 59.008C40.176 59.616 40.464 60.384 40.464 61.312C40.464 62.176 40.176 62.928 39.6 63.568C39.04 64.192 38.248 64.504 37.224 64.504Z" fill="white"/>
<defs>
<linearGradient id="paint0_linear_382_12" x1="37.4999" y1="10.2968" x2="37.4999" y2="78.7033" gradientUnits="userSpaceOnUse">
<stop stop-color="#F16211"/>
<stop offset="1" stop-color="#FB0505"/>
</linearGradient>
</defs>
</svg>
