<svg width="51" height="50" viewBox="0 0 51 50" fill="none" xmlns="http://www.w3.org/2000/svg">
<circle cx="25.5" cy="25" r="25" fill="url(#paint0_linear_100_36519)" fill-opacity="0.5"/>
<g style="mix-blend-mode:overlay">
<path d="M36.5848 29.223V30.8765C36.5848 31.8684 36.1206 32.7166 35.476 33.3831C34.8387 34.0436 33.9735 34.5822 32.9999 35.0087C31.0477 35.8616 28.4376 36.36 25.6179 36.36C22.7981 36.36 20.188 35.8629 18.2359 35.0087C17.2622 34.5822 16.3971 34.0436 15.7598 33.3831C15.1688 32.7738 14.7301 32.0086 14.6606 31.1215L14.6509 30.8765V29.223C15.2175 29.5447 15.8231 29.8298 16.4714 30.0699C18.9451 30.985 22.1803 31.4956 25.6179 31.4956C29.0554 31.4956 32.2907 30.985 34.7643 30.0699C35.2505 29.8895 35.7124 29.6848 36.1523 29.4569L36.5848 29.223ZM14.6509 22.5209C15.2175 22.8426 15.8231 23.1278 16.4714 23.3678C18.9451 24.283 22.1803 24.7935 25.6179 24.7935C29.0554 24.7935 32.2907 24.283 34.7643 23.3678C35.3933 23.1357 36.0021 22.8524 36.5848 22.5209V26.3045C35.7757 26.9291 34.8768 27.4278 33.9186 27.7839C31.7801 28.5759 28.8446 29.0597 25.6179 29.0597C22.3923 29.0597 19.4569 28.5759 17.3171 27.7839C16.3589 27.4278 15.46 26.9291 14.6509 26.3045V22.5209ZM25.6179 13.2075C28.4376 13.2075 31.0477 13.7047 32.9999 14.5589C33.9735 14.9854 34.8387 15.524 35.476 16.1844C36.067 16.7937 36.5056 17.559 36.5751 18.4461L36.5848 18.691V19.6025C35.7757 20.2271 34.8768 20.7258 33.9186 21.0818C31.7801 21.8739 28.8446 22.3576 25.6179 22.3576C22.3923 22.3576 19.4569 21.8739 17.3171 21.0818C16.4931 20.7762 15.7127 20.3641 14.9957 19.8559L14.6509 19.6025V18.691C14.6509 17.6991 15.1151 16.851 15.7598 16.1844C16.3971 15.524 17.2622 14.9854 18.2359 14.5589C20.188 13.7059 22.7981 13.2075 25.6179 13.2075Z" fill="white"/>
</g>
<defs>
<linearGradient id="paint0_linear_100_36519" x1="3.0974" y1="3.28947" x2="50.9544" y2="20.4069" gradientUnits="userSpaceOnUse">
<stop stop-color="#F7931A"/>
<stop offset="1" stop-color="#FFCD4D"/>
</linearGradient>
</defs>
</svg>
