<svg width="14" height="16" viewBox="0 0 14 16" fill="none" xmlns="http://www.w3.org/2000/svg">
<path d="M0.5 0.623535C0.367392 0.623535 0.240215 0.677642 0.146447 0.773952C0.0526785 0.870262 0 1.00089 0 1.13709V5.24552C0 5.38173 0.0526785 5.51235 0.146447 5.60866C0.240215 5.70497 0.367392 5.75908 0.5 5.75908C0.632608 5.75908 0.759785 5.70497 0.853553 5.60866C0.947321 5.51235 1 5.38173 1 5.24552V2.37681L4.146 5.60912C4.23989 5.70555 4.36722 5.75973 4.5 5.75973C4.63278 5.75973 4.76011 5.70555 4.854 5.60912C4.94789 5.51269 5.00063 5.3819 5.00063 5.24552C5.00063 5.10915 4.94789 4.97836 4.854 4.88193L1.707 1.65064H4.5C4.63261 1.65064 4.75979 1.59654 4.85355 1.50023C4.94732 1.40392 5 1.27329 5 1.13709C5 1.00089 4.94732 0.870262 4.85355 0.773952C4.75979 0.677642 4.63261 0.623535 4.5 0.623535H0.5ZM0.5 15.0031C0.367392 15.0031 0.240215 14.9489 0.146447 14.8526C0.0526785 14.7563 0 14.6257 0 14.4895V10.3811C0 10.2449 0.0526785 10.1142 0.146447 10.0179C0.240215 9.92162 0.367392 9.86751 0.5 9.86751C0.632608 9.86751 0.759785 9.92162 0.853553 10.0179C0.947321 10.1142 1 10.2449 1 10.3811V13.2498L4.146 10.0175C4.23989 9.92104 4.36722 9.86686 4.5 9.86686C4.63278 9.86686 4.76011 9.92104 4.854 10.0175C4.94789 10.1139 5.00063 10.2447 5.00063 10.3811C5.00063 10.5174 4.94789 10.6482 4.854 10.7447L1.707 13.9759H4.5C4.63261 13.9759 4.75979 14.0301 4.85355 14.1264C4.94732 14.2227 5 14.3533 5 14.4895C5 14.6257 4.94732 14.7563 4.85355 14.8526C4.75979 14.9489 4.63261 15.0031 4.5 15.0031H0.5ZM14 1.13709C14 1.00089 13.9473 0.870262 13.8536 0.773952C13.7598 0.677642 13.6326 0.623535 13.5 0.623535H9.5C9.36739 0.623535 9.24021 0.677642 9.14645 0.773952C9.05268 0.870262 9 1.00089 9 1.13709C9 1.27329 9.05268 1.40392 9.14645 1.50023C9.24021 1.59654 9.36739 1.65064 9.5 1.65064H12.293L9.146 4.88193C9.05211 4.97836 8.99937 5.10915 8.99937 5.24552C8.99937 5.3819 9.05211 5.51269 9.146 5.60912C9.23989 5.70555 9.36722 5.75973 9.5 5.75973C9.63278 5.75973 9.76011 5.70555 9.854 5.60912L13 2.37681V5.24552C13 5.38173 13.0527 5.51235 13.1464 5.60866C13.2402 5.70497 13.3674 5.75908 13.5 5.75908C13.6326 5.75908 13.7598 5.70497 13.8536 5.60866C13.9473 5.51235 14 5.38173 14 5.24552V1.13709ZM13.5 15.0031C13.6326 15.0031 13.7598 14.9489 13.8536 14.8526C13.9473 14.7563 14 14.6257 14 14.4895V10.3811C14 10.2449 13.9473 10.1142 13.8536 10.0179C13.7598 9.92162 13.6326 9.86751 13.5 9.86751C13.3674 9.86751 13.2402 9.92162 13.1464 10.0179C13.0527 10.1142 13 10.2449 13 10.3811V13.2498L9.854 10.0175C9.76011 9.92104 9.63278 9.86686 9.5 9.86686C9.36722 9.86686 9.23989 9.92104 9.146 10.0175C9.05211 10.1139 8.99937 10.2447 8.99937 10.3811C8.99937 10.5174 9.05211 10.6482 9.146 10.7447L12.293 13.9759H9.5C9.36739 13.9759 9.24021 14.0301 9.14645 14.1264C9.05268 14.2227 9 14.3533 9 14.4895C9 14.6257 9.05268 14.7563 9.14645 14.8526C9.24021 14.9489 9.36739 15.0031 9.5 15.0031H13.5Z" fill="#767A89"/>
</svg>
