<svg width="50" height="50" viewBox="0 0 50 50" fill="none" xmlns="http://www.w3.org/2000/svg">
<mask id="mask0_206_13" style="mask-type:alpha" maskUnits="userSpaceOnUse" x="0" y="0" width="50" height="50">
<path d="M3.05176e-05 6.10352e-05H50V50.0001H3.05176e-05V6.10352e-05Z" fill="white"/>
</mask>
<g mask="url(#mask0_206_13)">
<path fill-rule="evenodd" clip-rule="evenodd" d="M25 6.10352e-05C38.8074 6.10352e-05 50.0001 11.1927 50.0001 25.0001C50.0001 38.8064 38.8074 50.0001 25 50.0001C11.1927 50.0001 3.05176e-05 38.8064 3.05176e-05 25.0001C3.05176e-05 11.1927 11.1927 6.10352e-05 25 6.10352e-05Z" fill="#2775CA"/>
</g>
<path fill-rule="evenodd" clip-rule="evenodd" d="M20.3141 42.3806C20.3141 42.9686 19.8535 43.3027 19.2848 43.1252C11.726 40.7138 6.24557 33.626 6.24557 25.2629C6.24557 16.9001 11.726 9.81205 19.2848 7.40068C19.8535 7.22426 20.3141 7.55721 20.3141 8.14528V9.59699C20.3141 9.98847 20.0106 10.4493 19.6376 10.5768C13.6572 12.7728 9.37313 18.518 9.37313 25.253C9.37313 31.9879 13.6572 37.7343 19.6376 39.9291C20.0106 40.0666 20.3141 40.5172 20.3141 40.9101V42.3806Z" fill="white"/>
<path fill-rule="evenodd" clip-rule="evenodd" d="M26.5583 36.9802C26.5583 37.412 26.2055 37.7649 25.7742 37.7649H24.2151C23.7839 37.7649 23.431 37.412 23.431 36.9802V34.5101C20.0191 34.0495 18.3529 32.1373 17.9018 29.5396C17.8231 29.0978 18.1759 28.6961 18.6271 28.6961H20.4114C20.7839 28.6961 21.0978 28.9612 21.1762 29.3331C21.5097 30.8822 22.4018 32.0686 25.1367 32.0686C27.1563 32.0686 28.5882 30.941 28.5882 29.2555C28.5882 27.5686 27.7447 26.9316 24.7839 26.441C20.4114 25.8529 18.343 24.5291 18.343 21.0978C18.343 18.4509 20.3433 16.3924 23.441 15.9509V13.5293C23.441 13.0978 23.7941 12.7447 24.2251 12.7447H25.7842C26.2154 12.7447 26.5683 13.0978 26.5683 13.5293V16.0197C29.0879 16.4714 30.6859 17.9018 31.2058 20.2742C31.3035 20.7259 30.9507 21.1467 30.4901 21.1467H28.8427C28.4899 21.1467 28.1958 20.9112 28.0882 20.5683C27.647 19.0592 26.5683 18.4123 24.6955 18.4123C22.6271 18.4123 21.5583 19.412 21.5583 20.8137C21.5583 22.2941 22.1666 23.0387 25.3433 23.5004C29.6367 24.0884 31.8529 25.3137 31.8529 28.9714C31.8529 31.7456 29.7938 33.9907 26.5683 34.5101V36.9802H26.5583Z" fill="white"/>
<path fill-rule="evenodd" clip-rule="evenodd" d="M30.7157 43.1263C30.1475 43.3039 29.6864 42.9698 29.6864 42.3817V40.9311C29.6864 40.4996 29.9512 40.0979 30.3629 39.9502C36.3433 37.7541 40.6273 32.009 40.6273 25.274C40.6273 18.5391 36.3433 12.7939 30.3629 10.5979C29.9904 10.4604 29.6864 10.0098 29.6864 9.61689V8.16632C29.6864 7.57826 30.1475 7.23536 30.7157 7.42058C38.2745 9.83337 43.7549 16.9212 43.7549 25.284C43.7455 33.6269 38.2745 40.705 30.7157 43.1263Z" fill="white"/>
</svg>
