<svg width="193" height="90" viewBox="0 0 193 90" fill="none" xmlns="http://www.w3.org/2000/svg">
<path fill-rule="evenodd" clip-rule="evenodd" d="M108.002 47.1304C108.001 47.2535 108 47.3767 108 47.5C108 70.9721 127.028 90 150.5 90C173.972 90 193 70.9721 193 47.5C193 24.0279 173.972 5 150.5 5C150.377 5 150.253 5.00052 150.13 5.00157L150.13 47.1304L108.002 47.1304Z" fill="#F5F5F5" fill-opacity="0.3"/>
<circle cx="150.5" cy="47.5" r="25.5" transform="rotate(-90 150.5 47.5)" fill="#EAE823"/>
<g filter="url(#filter0_d_451_142)">
<path d="M2.84 40L8.168 4.72L14.504 4.72L19.832 40H14.792L13.832 32.8H8.84L7.88 40H2.84ZM9.56 27.328L13.112 27.328L11.624 15.472L11.48 13.6H11.192L11.048 15.472L9.56 27.328ZM24.0163 40L24.0163 4.72L29.2003 4.72C32.3043 4.72 34.5923 5.584 36.0643 7.312C37.5363 9.024 38.2723 11.552 38.2723 14.896C38.2723 16.88 37.9203 18.6 37.2163 20.056C36.5283 21.496 35.6883 22.552 34.6963 23.224L38.2243 40H33.0403L30.1123 25.12H29.2003L29.2003 40L24.0163 40ZM29.2003 20.32C30.1603 20.32 30.9203 20.112 31.4803 19.696C32.0403 19.264 32.4403 18.656 32.6803 17.872C32.9203 17.088 33.0403 16.16 33.0403 15.088C33.0403 13.408 32.7603 12.12 32.2003 11.224C31.6563 10.312 30.6563 9.856 29.2003 9.856L29.2003 20.32ZM46.0685 40L46.0685 10.048H41.1725V4.72L56.1485 4.72V10.048L51.2525 10.048L51.2525 40H46.0685ZM59.99 40L59.99 4.72L65.174 4.72V40H59.99ZM76.7169 40.384C75.2929 40.384 74.1089 40.152 73.1649 39.688C72.2209 39.208 71.4769 38.52 70.9329 37.624C70.3889 36.728 69.9969 35.648 69.7569 34.384C69.5329 33.12 69.4209 31.696 69.4209 30.112L74.5089 29.632C74.5089 30.4 74.5329 31.144 74.5809 31.864C74.6449 32.568 74.7489 33.208 74.8929 33.784C75.0529 34.344 75.2769 34.792 75.5649 35.128C75.8689 35.464 76.2529 35.632 76.7169 35.632C77.4849 35.632 78.0289 35.28 78.3489 34.576C78.6689 33.856 78.8289 32.992 78.8289 31.984C78.8289 30.976 78.5649 29.928 78.0369 28.84C77.5089 27.752 76.8769 26.72 76.1409 25.744C74.8929 24.08 73.7969 22.536 72.8529 21.112C71.9249 19.688 71.1969 18.288 70.6689 16.912C70.1569 15.536 69.9009 14.096 69.9009 12.592C69.9009 11.408 70.0529 10.32 70.3569 9.328C70.6609 8.32 71.1009 7.448 71.6769 6.712C72.2689 5.96 72.9809 5.376 73.8129 4.96C74.6449 4.544 75.5969 4.336 76.6689 4.336C77.9969 4.336 79.1169 4.56 80.0289 5.008C80.9569 5.456 81.7009 6.096 82.2609 6.928C82.8369 7.76 83.2529 8.752 83.5089 9.904C83.7809 11.04 83.9169 12.304 83.9169 13.696L78.8289 14.176C78.8289 13.584 78.7969 12.992 78.7329 12.4C78.6849 11.792 78.5889 11.24 78.4449 10.744C78.3009 10.248 78.0929 9.848 77.8209 9.544C77.5489 9.24 77.1969 9.088 76.7649 9.088C76.0929 9.088 75.6289 9.376 75.3729 9.952C75.1169 10.512 74.9889 11.312 74.9889 12.352C74.9889 13.696 75.3489 14.992 76.0689 16.24C76.7889 17.488 77.7569 18.944 78.9729 20.608C80.4289 22.576 81.6129 24.384 82.5249 26.032C83.4529 27.68 83.9169 29.504 83.9169 31.504C83.9169 32.768 83.7809 33.944 83.5089 35.032C83.2369 36.104 82.8049 37.04 82.2129 37.84C81.6369 38.64 80.8929 39.264 79.9809 39.712C79.0849 40.16 77.9969 40.384 76.7169 40.384ZM91.5916 40V10.048H86.6956V4.72L101.672 4.72V10.048H96.7756V40H91.5916ZM111.753 40.384C110.329 40.384 109.145 40.152 108.201 39.688C107.257 39.208 106.513 38.52 105.969 37.624C105.425 36.728 105.033 35.648 104.793 34.384C104.569 33.12 104.457 31.696 104.457 30.112L109.545 29.632C109.545 30.4 109.569 31.144 109.617 31.864C109.681 32.568 109.785 33.208 109.929 33.784C110.089 34.344 110.313 34.792 110.601 35.128C110.905 35.464 111.289 35.632 111.753 35.632C112.521 35.632 113.065 35.28 113.385 34.576C113.705 33.856 113.865 32.992 113.865 31.984C113.865 30.976 113.601 29.928 113.073 28.84C112.545 27.752 111.913 26.72 111.177 25.744C109.929 24.08 108.833 22.536 107.889 21.112C106.961 19.688 106.233 18.288 105.705 16.912C105.193 15.536 104.937 14.096 104.937 12.592C104.937 11.408 105.089 10.32 105.393 9.328C105.697 8.32 106.137 7.448 106.713 6.712C107.305 5.96 108.017 5.376 108.849 4.96C109.681 4.544 110.633 4.336 111.705 4.336C113.033 4.336 114.153 4.56 115.065 5.008C115.993 5.456 116.737 6.096 117.297 6.928C117.873 7.76 118.289 8.752 118.545 9.904C118.817 11.04 118.953 12.304 118.953 13.696L113.865 14.176C113.865 13.584 113.833 12.992 113.769 12.4C113.721 11.792 113.625 11.24 113.481 10.744C113.337 10.248 113.129 9.848 112.857 9.544C112.585 9.24 112.233 9.088 111.801 9.088C111.129 9.088 110.665 9.376 110.409 9.952C110.153 10.512 110.025 11.312 110.025 12.352C110.025 13.696 110.385 14.992 111.105 16.24C111.825 17.488 112.793 18.944 114.009 20.608C115.465 22.576 116.649 24.384 117.561 26.032C118.489 27.68 118.953 29.504 118.953 31.504C118.953 32.768 118.817 33.944 118.545 35.032C118.273 36.104 117.841 37.04 117.249 37.84C116.673 38.64 115.929 39.264 115.017 39.712C114.121 40.16 113.033 40.384 111.753 40.384Z" fill="#F5F5F5"/>
</g>
<path d="M164.061 47.0607C164.646 46.4749 164.646 45.5251 164.061 44.9393L154.515 35.3934C153.929 34.8076 152.979 34.8076 152.393 35.3934C151.808 35.9792 151.808 36.9289 152.393 37.5147L160.879 46L152.393 54.4853C151.808 55.0711 151.808 56.0208 152.393 56.6066C152.979 57.1924 153.929 57.1924 154.515 56.6066L164.061 47.0607ZM137 47.5L163 47.5V44.5L137 44.5V47.5Z" fill="black"/>
<defs>
<filter id="filter0_d_451_142" x="0.839844" y="0.335999" width="124.113" height="44.048" filterUnits="userSpaceOnUse" color-interpolation-filters="sRGB">
<feFlood flood-opacity="0" result="BackgroundImageFix"/>
<feColorMatrix in="SourceAlpha" type="matrix" values="0 0 0 0 0 0 0 0 0 0 0 0 0 0 0 0 0 0 127 0" result="hardAlpha"/>
<feOffset dx="2"/>
<feGaussianBlur stdDeviation="2"/>
<feComposite in2="hardAlpha" operator="out"/>
<feColorMatrix type="matrix" values="0 0 0 0 0 0 0 0 0 0 0 0 0 0 0 0 0 0 0.25 0"/>
<feBlend mode="normal" in2="BackgroundImageFix" result="effect1_dropShadow_451_142"/>
<feBlend mode="normal" in="SourceGraphic" in2="effect1_dropShadow_451_142" result="shape"/>
</filter>
</defs>
</svg>
