<svg width="166" height="92" viewBox="0 0 166 92" fill="none" xmlns="http://www.w3.org/2000/svg">
<g filter="url(#filter0_d_450_128)">
<path d="M79.592 40.384C78.152 40.384 76.912 40.048 75.872 39.376C74.848 38.704 74.056 37.792 73.496 36.64C72.952 35.488 72.68 34.192 72.68 32.752V11.968C72.68 10.512 72.952 9.216 73.496 8.08C74.056 6.928 74.848 6.016 75.872 5.344C76.912 4.672 78.152 4.336 79.592 4.336C81.032 4.336 82.264 4.672 83.288 5.344C84.328 6.016 85.12 6.928 85.664 8.08C86.224 9.232 86.504 10.528 86.504 11.968V32.752C86.504 34.192 86.224 35.488 85.664 36.64C85.12 37.792 84.328 38.704 83.288 39.376C82.264 40.048 81.032 40.384 79.592 40.384ZM79.592 35.344C80.232 35.344 80.68 35.08 80.936 34.552C81.192 34.008 81.32 33.408 81.32 32.752V11.968C81.32 11.312 81.184 10.72 80.912 10.192C80.64 9.648 80.2 9.376 79.592 9.376C79 9.376 78.56 9.648 78.272 10.192C78 10.72 77.864 11.312 77.864 11.968V32.752C77.864 33.408 78 34.008 78.272 34.552C78.544 35.08 78.984 35.344 79.592 35.344ZM94.5504 40V10.048H89.6544V4.72L104.63 4.72V10.048H99.7344V40H94.5504ZM108.472 40V4.72L113.656 4.72V19.312H117.688V4.72L122.872 4.72V40H117.688V24.64H113.656V40H108.472ZM128.146 40V4.72L140.002 4.72V10.048H133.33V19.552H138.13V24.736H133.33V34.672L140.002 34.672V40L128.146 40ZM145.289 40V4.72H150.473C153.577 4.72 155.865 5.584 157.337 7.312C158.809 9.024 159.545 11.552 159.545 14.896C159.545 16.88 159.193 18.6 158.489 20.056C157.801 21.496 156.961 22.552 155.969 23.224L159.497 40H154.313L151.385 25.12H150.473V40H145.289ZM150.473 20.32C151.433 20.32 152.193 20.112 152.753 19.696C153.313 19.264 153.713 18.656 153.953 17.872C154.193 17.088 154.313 16.16 154.313 15.088C154.313 13.408 154.033 12.12 153.473 11.224C152.929 10.312 151.929 9.856 150.473 9.856V20.32Z" fill="#F5F5F5"/>
</g>
<path fill-rule="evenodd" clip-rule="evenodd" d="M42.8696 7.00157C42.7465 7.00053 42.6233 7 42.5 7C19.0279 7 0 26.0279 0 49.5C0 72.9721 19.0279 92 42.5 92C65.9721 92 85 72.9721 85 49.5C85 49.3767 84.9995 49.2535 84.9984 49.1304L42.8696 49.1304L42.8696 7.00157Z" fill="#F5F5F5" fill-opacity="0.3"/>
<circle cx="42.5" cy="49.5" r="25.5" fill="#EAE823"/>
<path d="M56.0607 50.0607C56.6464 49.4749 56.6464 48.5251 56.0607 47.9393L46.5147 38.3934C45.9289 37.8076 44.9792 37.8076 44.3934 38.3934C43.8076 38.9792 43.8076 39.9289 44.3934 40.5147L52.8787 49L44.3934 57.4853C43.8076 58.0711 43.8076 59.0208 44.3934 59.6066C44.9792 60.1924 45.9289 60.1924 46.5147 59.6066L56.0607 50.0607ZM29 50.5L55 50.5V47.5L29 47.5V50.5Z" fill="black"/>
<defs>
<filter id="filter0_d_450_128" x="70.6802" y="0.335938" width="94.8652" height="44.048" filterUnits="userSpaceOnUse" color-interpolation-filters="sRGB">
<feFlood flood-opacity="0" result="BackgroundImageFix"/>
<feColorMatrix in="SourceAlpha" type="matrix" values="0 0 0 0 0 0 0 0 0 0 0 0 0 0 0 0 0 0 127 0" result="hardAlpha"/>
<feOffset dx="2"/>
<feGaussianBlur stdDeviation="2"/>
<feComposite in2="hardAlpha" operator="out"/>
<feColorMatrix type="matrix" values="0 0 0 0 0 0 0 0 0 0 0 0 0 0 0 0 0 0 0.25 0"/>
<feBlend mode="normal" in2="BackgroundImageFix" result="effect1_dropShadow_450_128"/>
<feBlend mode="normal" in="SourceGraphic" in2="effect1_dropShadow_450_128" result="shape"/>
</filter>
</defs>
</svg>
