<svg width="33" height="33" viewBox="0 0 33 33" fill="none" xmlns="http://www.w3.org/2000/svg">
<rect x="0.40877" y="0.40877" width="31.884" height="32.1825" rx="15.942" fill="#292724"/>
<path fill-rule="evenodd" clip-rule="evenodd" d="M10.3682 7.97423C10.3682 5.82679 12.1091 4.08594 14.2565 4.08594H18.4439C20.5914 4.08594 22.3322 5.82679 22.3322 7.97423H10.3682ZM6.18115 12.7593C6.18115 10.6119 7.922 8.87102 10.0694 8.87102H22.6316C24.7791 8.87102 26.5199 10.6119 26.5199 12.7593H6.18115ZM6.7793 13.6565C5.29261 13.6565 4.0874 14.8617 4.0874 16.3484C4.0874 17.8351 5.29261 19.0403 6.7793 19.0403H25.9217C27.4084 19.0403 28.6136 17.8351 28.6136 16.3484C28.6136 14.8617 27.4084 13.6565 25.9217 13.6565H6.7793ZM6.48014 20.2369C6.48014 22.3844 8.22099 24.1252 10.3684 24.1252H22.9306C25.0781 24.1252 26.8189 22.3844 26.8189 20.2369H6.48014ZM14.2565 28.9103C12.1091 28.9103 10.3682 27.1695 10.3682 25.022H22.6313C22.6313 27.1695 20.8905 28.9103 18.743 28.9103H14.2565Z" fill="#FFCD4D"/>
<rect x="0.40877" y="0.40877" width="31.884" height="32.1825" rx="15.942" stroke="#2D291D" stroke-width="0.817539"/>
</svg>
