<svg width="215" height="32" viewBox="0 0 215 32" fill="none" xmlns="http://www.w3.org/2000/svg">
<path d="M0 0.730316H3.92712V16.0967H8.13984V0.730316H12.067V30.9127H8.13984V19.6668H3.92712V30.9127H0V0.730316Z" fill="#FFCD4D"/>
<path d="M20.6681 31.2697C18.7403 31.2697 17.2646 30.7223 16.2412 29.6274C15.2178 28.5326 14.706 26.9856 14.706 24.9863V11.8483C14.706 9.84906 15.2178 8.30201 16.2412 7.20718C17.2646 6.11235 18.7403 5.56493 20.6681 5.56493C22.596 5.56493 24.0716 6.11235 25.095 7.20718C26.1185 8.30201 26.6302 9.84906 26.6302 11.8483V24.9863C26.6302 26.9856 26.1185 28.5326 25.095 29.6274C24.0716 30.7223 22.596 31.2697 20.6681 31.2697ZM20.6681 27.6996C22.0248 27.6996 22.7031 26.8785 22.7031 25.2362V11.5984C22.7031 9.95616 22.0248 9.13504 20.6681 9.13504C19.3115 9.13504 18.6332 9.95616 18.6332 11.5984V25.2362C18.6332 26.8785 19.3115 27.6996 20.6681 27.6996Z" fill="#FFCD4D"/>
<path d="M29.286 5.92194H34.2128L38.0328 20.8807H38.1042V5.92194H43.3177V30.9127H37.5687L32.8561 12.6694H32.7847V30.9127H29.286V5.92194Z" fill="#FFCD4D"/>
<path d="M68.9833 20.6602L64.4656 5.84425H68.6426L71.3202 15.0194H71.3916L74.0692 5.84425H77.8892L73.1409 20.1961V30.835H69.2138L68.9833 20.6602Z" fill="#FFCD4D"/>
<path d="M79.6583 5.84425H85.4419C87.3936 5.84425 88.8573 6.36787 89.8331 7.4151C90.809 8.46233 91.2969 9.99748 91.2969 12.0205V14.4839C91.2969 16.507 90.809 18.0421 89.8331 19.0893C88.8573 20.1366 87.3936 20.6602 85.4419 20.6602H83.5854V30.835H79.6583V5.84425ZM85.4419 17.0901C86.0845 17.0901 86.5605 16.9116 86.8699 16.5546C87.2031 16.1976 87.3698 15.5906 87.3698 14.7338V11.7706C87.3698 10.9138 87.2031 10.3069 86.8699 9.94987C86.5605 9.59286 86.0845 9.41436 85.4419 9.41436H83.5854V17.0901H85.4419Z" fill="#FFCD4D"/>
<path d="M99.1062 31.192C97.1783 31.192 95.7027 30.6446 94.6793 29.5498C93.6558 28.4549 93.1441 26.9079 93.1441 24.9086V11.7706C93.1441 9.77137 93.6558 8.22432 94.6793 7.12949C95.7027 6.03466 97.1783 5.48724 99.1062 5.48724C101.034 5.48724 102.51 6.03466 103.533 7.12949C104.557 8.22432 105.068 9.77137 105.068 11.7706V24.9086C105.068 26.9079 104.557 28.4549 103.533 29.5498C102.51 30.6446 101.034 31.192 99.1062 31.192ZM99.1062 27.6219C100.463 27.6219 101.141 26.8008 101.141 25.1585V11.5207C101.141 9.87847 100.463 9.05735 99.1062 9.05735C97.7495 9.05735 97.0712 9.87847 97.0712 11.5207V25.1585C97.0712 26.8008 97.7495 27.6219 99.1062 27.6219Z" fill="#FFCD4D"/>
<path d="M110.655 9.41436H106.549V5.84425H118.688V9.41436H114.582V30.835H110.655V9.41436Z" fill="#FFCD4D"/>
<path d="M126.307 5.84425H136.696V9.41436H130.234V16.3761H135.303V19.9462H130.234V30.835H126.307V5.84425Z" fill="#FFCD4D"/>
<path d="M138.579 5.84425H142.506V30.835H138.579V5.84425Z" fill="#FFCD4D"/>
<path d="M145.447 5.84425H150.374L154.194 20.803H154.265V5.84425H157.764V30.835H153.73L149.017 12.5918H148.946V30.835H145.447V5.84425Z" fill="#FFCD4D"/>
<path d="M163.718 5.84425H169.037L173.107 30.835H169.18L168.466 25.8725V25.9439H164.003L163.289 30.835H159.648L163.718 5.84425ZM168.002 22.5523L166.252 10.1998H166.181L164.467 22.5523H168.002Z" fill="#FFCD4D"/>
<path d="M175.012 5.84425H179.939L183.759 20.803H183.83V5.84425H187.329V30.835H183.295L178.582 12.5918H178.511V30.835H175.012V5.84425Z" fill="#FFCD4D"/>
<path d="M195.782 31.192C193.901 31.192 192.461 30.6565 191.462 29.5855C190.486 28.5144 189.998 27.0031 189.998 25.0514V11.6278C189.998 9.67617 190.486 8.16482 191.462 7.09379C192.461 6.02276 193.901 5.48724 195.782 5.48724C197.662 5.48724 199.09 6.02276 200.066 7.09379C201.065 8.16482 201.565 9.67617 201.565 11.6278V14.2697H197.852V11.3779C197.852 9.83087 197.198 9.05735 195.889 9.05735C194.58 9.05735 193.925 9.83087 193.925 11.3779V25.337C193.925 26.8603 194.58 27.6219 195.889 27.6219C197.198 27.6219 197.852 26.8603 197.852 25.337V21.517H201.565V25.0514C201.565 27.0031 201.065 28.5144 200.066 29.5855C199.09 30.6565 197.662 31.192 195.782 31.192Z" fill="#FFCD4D"/>
<path d="M203.915 5.84425H214.625V9.41436H207.842V16.0191H213.233V19.5892H207.842V27.2649H214.625V30.835H203.915V5.84425Z" fill="#FFCD4D"/>
<path fill-rule="evenodd" clip-rule="evenodd" d="M50.5862 10.6599C50.5862 8.71912 52.1594 7.14584 54.1002 7.14584H57.8845C59.8252 7.14584 61.3985 8.71912 61.3985 10.6599H50.5862ZM46.8019 14.9847C46.8019 13.044 48.3752 11.4707 50.3159 11.4707H61.6689C63.6096 11.4707 65.1829 13.044 65.1829 14.9847H46.8019ZM47.3425 15.7954C45.9989 15.7954 44.9097 16.8845 44.9097 18.2281C44.9097 19.5717 45.9989 20.6609 47.3425 20.6609H64.6422C65.9858 20.6609 67.075 19.5717 67.075 18.2281C67.075 16.8845 65.9858 15.7954 64.6422 15.7954H47.3425ZM47.0721 21.7423C47.0721 23.6831 48.6454 25.2564 50.5861 25.2564H61.9391C63.8798 25.2564 65.4531 23.6831 65.4531 21.7423H47.0721ZM54.1002 29.5812C52.1594 29.5812 50.5862 28.0079 50.5862 26.0672H61.6688C61.6688 28.0079 60.0956 29.5812 58.1548 29.5812H54.1002Z" fill="#FFCD4D"/>
</svg>
