<svg xmlns="http://www.w3.org/2000/svg" width="35.884" height="35.843" viewBox="0 0 35.884 35.843">
  <path id="Trazado_10362" data-name="Trazado 10362" d="M-151.955,98.135l-7.488,11.112a.8.8,0,0,0,1.195,1.036l7.368-6.413a.289.289,0,0,1,.479.24v20.033a.3.3,0,0,1-.519.2l-22.3-26.684A3.682,3.682,0,0,0-176.13,96.3h-.8a3.815,3.815,0,0,0-3.784,3.822v28.2a3.823,3.823,0,0,0,3.823,3.822,3.837,3.837,0,0,0,3.265-1.831l7.488-11.112a.8.8,0,0,0-1.195-1.036l-7.368,6.373a.289.289,0,0,1-.479-.24V104.308a.3.3,0,0,1,.519-.2l22.3,26.684a3.745,3.745,0,0,0,2.908,1.353h.8a3.823,3.823,0,0,0,3.823-3.822v-28.2a3.884,3.884,0,0,0-3.863-3.822A3.837,3.837,0,0,0-151.955,98.135Z" transform="translate(180.71 -96.304)" fill="#fff"/>
</svg>
