<svg width="50" height="50" viewBox="0 0 50 50" fill="none" xmlns="http://www.w3.org/2000/svg">
<circle cx="25" cy="25" r="25" fill="#F7931A"/>
<path fill-rule="evenodd" clip-rule="evenodd" d="M26.6464 24.8367C28.11 24.5247 29.2172 23.6501 29.5226 21.8502C29.9438 19.3916 27.8844 18.081 25.0624 17.2144L25.9995 13.8825L23.7627 13.3892L22.8496 16.6331C22.2629 16.5024 21.6597 16.3798 21.0595 16.2598L21.9786 12.9932L19.7432 12.4999L18.806 15.8304C18.3187 15.7331 17.8403 15.6358 17.377 15.5331L17.38 15.5238L14.2962 14.8412L13.687 17.0064C13.687 17.0064 15.3462 17.3437 15.3101 17.3637C16.2172 17.565 16.3781 18.1064 16.348 18.537L15.28 22.3328C15.3593 22.3504 15.4372 22.3726 15.5132 22.3995L15.2755 22.3475L13.7802 27.6646C13.6674 27.9139 13.3846 28.2886 12.7498 28.1513C12.7724 28.1793 11.1252 27.7913 11.1252 27.7913L9.99997 30.1138L12.9108 30.7578C13.2388 30.8305 13.5624 30.9051 13.8829 30.9791C14.0916 31.0272 14.2989 31.075 14.5053 31.1218L13.5576 34.4923L15.79 34.9856L16.7286 31.6524C17.3206 31.7947 17.9143 31.9311 18.5097 32.0618L17.5755 35.3816L19.8109 35.8749L20.7586 32.5124C24.5735 33.1457 27.4467 32.8684 28.6741 29.7392C29.6625 27.2193 28.6486 25.774 26.6464 24.8367ZM36.7761 32.753L37.5959 29.8425L40.8798 30.5691L41.4258 28.6279L38.142 27.9026L38.9603 24.992L36.7716 24.508L35.9517 27.4186L32.6679 26.6933L32.1218 28.6332L35.4057 29.3585L34.5873 32.2704L36.7761 32.753ZM24.3684 28.3631C25.0324 26.0021 21.1697 25.2355 19.2806 24.8606L19.2804 24.8606C19.0681 24.8185 18.8806 24.7813 18.7274 24.7473L17.4743 29.2098C17.5999 29.2374 17.7471 29.2719 17.912 29.3105C19.7376 29.7382 23.723 30.6718 24.3714 28.3618L24.3684 28.3631ZM20.9024 18.7481C22.4774 19.0561 25.7036 19.6869 25.1005 21.836C24.5082 23.9381 21.1832 23.1487 19.6646 22.7882C19.5284 22.7558 19.4068 22.727 19.3029 22.7039L20.4417 18.6548C20.5692 18.6829 20.7254 18.7135 20.9024 18.7481Z" fill="white"/>
</svg>
