<svg width="50" height="50" viewBox="0 0 50 50" fill="none" xmlns="http://www.w3.org/2000/svg">
<circle cx="25" cy="25" r="25" fill="#292724"/>
<path fill-rule="evenodd" clip-rule="evenodd" d="M19.2808 15.8883C19.2808 13.7409 21.0217 12 23.1691 12H27.3565C29.504 12 31.2448 13.7409 31.2448 15.8883H19.2808ZM15.0938 20.6734C15.0938 18.5259 16.8346 16.7851 18.982 16.7851H31.5442C33.6917 16.7851 35.4325 18.5259 35.4325 20.6734H15.0938ZM15.6919 21.5706C14.2052 21.5706 13 22.7758 13 24.2625C13 25.7492 14.2052 26.9544 15.6919 26.9544H34.8343C36.321 26.9544 37.5262 25.7492 37.5262 24.2625C37.5262 22.7758 36.321 21.5706 34.8343 21.5706H15.6919ZM15.3927 28.151C15.3927 30.2985 17.1336 32.0393 19.281 32.0393H31.8432C33.9907 32.0393 35.7315 30.2985 35.7315 28.151H15.3927ZM23.1691 36.8244C21.0217 36.8244 19.2808 35.0835 19.2808 32.9361H31.5439C31.5439 35.0835 29.8031 36.8244 27.6556 36.8244H23.1691Z" fill="#FFCD4D"/>
</svg>
