<svg width="25" height="26" viewBox="0 0 25 26" fill="none" xmlns="http://www.w3.org/2000/svg">
<path fill-rule="evenodd" clip-rule="evenodd" d="M6.64255 4.476C6.64255 2.32856 8.3834 0.587708 10.5308 0.587708H14.7182C16.8657 0.587708 18.6065 2.32856 18.6065 4.476H6.64255ZM2.45546 9.26108C2.45546 7.11364 4.19631 5.37279 6.34375 5.37279H18.9059C21.0534 5.37279 22.7942 7.11364 22.7942 9.26108H2.45546ZM3.05361 10.1583C1.56691 10.1583 0.36171 11.3635 0.36171 12.8502C0.36171 14.3369 1.56691 15.5421 3.05361 15.5421H22.196C23.6827 15.5421 24.8879 14.3369 24.8879 12.8502C24.8879 11.3635 23.6827 10.1583 22.196 10.1583H3.05361ZM2.75445 16.7387C2.75445 18.8862 4.4953 20.627 6.64275 20.627H19.2049C21.3524 20.627 23.0932 18.8862 23.0932 16.7387H2.75445ZM10.5308 25.4121C8.3834 25.4121 6.64255 23.6712 6.64255 21.5238H18.9056C18.9056 23.6712 17.1648 25.4121 15.0173 25.4121H10.5308Z" fill="#FFCD4D"/>
</svg>
